<?xml version="1.0" standalone="no"?>
<!DOCTYPE svg PUBLIC "-//W3C//DTD SVG 20010904//EN"
 "http://www.w3.org/TR/2001/REC-SVG-20010904/DTD/svg10.dtd">
<svg version="1.0" xmlns="http://www.w3.org/2000/svg"
 width="4096.000000pt" height="1412.000000pt" viewBox="0 0 4096.000000 1412.000000"
 preserveAspectRatio="xMidYMid meet">

<g transform="translate(0.000000,1412.000000) scale(0.100000,-0.100000)"
fill="#000000" stroke="none">
<path d="M8195 14114 c-392 -9 -897 -39 -1245 -74 -2830 -288 -4796 -1393
-5680 -3195 -258 -525 -416 -1087 -476 -1685 -19 -188 -24 -698 -7 -837 l8
-71 122 151 c194 244 342 407 582 647 355 353 658 603 1066 875 1255 837 2768
1281 4843 1420 246 16 991 40 999 31 3 -3 -24 -38 -59 -78 -423 -475 -781
-1186 -1147 -2273 -38 -115 -143 -442 -232 -725 -88 -283 -164 -519 -168 -523
-4 -4 -95 -17 -201 -28 -1710 -175 -2998 -715 -3580 -1499 -166 -225 -260
-457 -260 -646 0 -235 121 -334 410 -334 199 0 414 37 1045 180 643 146 949
207 1280 255 199 29 608 75 614 70 5 -5 -108 -288 -214 -535 -610 -1430 -1276
-2302 -2173 -2844 -845 -511 -1881 -711 -2852 -550 -348 58 -667 162 -836 273
l-30 21 8 -73 c84 -739 629 -1390 1463 -1747 890 -382 1986 -408 2995 -71 895
300 1617 811 2301 1631 749 896 1417 2176 1945 3725 l102 300 123 2 c551 10
1165 32 1449 54 575 43 1083 315 1437 769 255 328 386 735 313 972 -24 80 -71
135 -147 175 -149 79 -319 103 -731 103 -329 0 -427 -4 -1276 -56 -324 -19
-596 -34 -606 -32 -15 3 -2 67 111 543 70 297 152 639 182 760 230 908 469
1539 769 2028 l60 98 52 -5 c28 -3 134 -10 236 -16 445 -25 1056 -69 2470
-175 2052 -155 3015 -216 4215 -270 1083 -48 1612 -59 2730 -60 1038 0 1234 4
1835 41 2241 135 3936 567 5016 1280 548 362 938 816 1089 1267 34 101 64 241
54 252 -3 2 -43 -6 -90 -19 -293 -85 -794 -200 -1179 -270 -2227 -407 -4998
-451 -8765 -140 -1456 120 -2097 189 -4370 473 -1888 236 -2733 323 -3785 391
-488 31 -1401 53 -1815 44z"/>
<path d="M30670 13956 c-719 -93 -1333 -500 -1619 -1073 -27 -54 -95 -201
-151 -328 -565 -1273 -3262 -7508 -3675 -8495 -435 -1038 -487 -1155 -585
-1305 -227 -347 -891 -748 -1255 -758 -113 -3 -167 15 -231 77 -93 92 -119
209 -111 491 9 307 81 627 256 1145 167 497 335 916 681 1705 240 546 385 887
435 1020 117 312 138 757 50 1023 -72 214 -212 345 -415 388 -166 35 -448 1
-656 -79 -266 -102 -577 -310 -795 -530 -124 -124 -383 -442 -754 -927 -82
-107 -287 -371 -455 -585 -168 -215 -446 -574 -619 -798 l-315 -407 -78 0
c-43 0 -78 4 -78 9 0 23 80 230 332 861 536 1342 599 1539 600 1865 1 251 -61
400 -200 482 -191 113 -595 102 -865 -25 -135 -63 -232 -135 -372 -276 -202
-203 -275 -325 -510 -841 -535 -1178 -1154 -2795 -1519 -3965 l-45 -146 -93
-43 c-294 -137 -384 -177 -554 -244 -367 -145 -612 -218 -738 -219 -90 -1
-144 14 -198 55 -89 68 -119 184 -99 381 45 439 166 828 483 1551 368 838 523
1202 740 1734 247 609 565 1431 595 1543 10 35 17 99 18 143 0 68 -5 89 -28
137 -90 185 -345 273 -787 272 -214 0 -327 -15 -472 -60 -271 -85 -444 -234
-576 -499 -22 -44 -351 -791 -732 -1660 -877 -2001 -907 -2069 -997 -2250
-204 -406 -389 -682 -603 -894 -253 -251 -577 -420 -811 -422 -124 -1 -195 28
-272 110 -58 62 -93 134 -114 238 -20 99 -8 223 37 364 36 115 287 732 870
2134 698 1681 923 2230 970 2375 77 236 74 330 -17 431 -44 49 -123 88 -245
121 -111 30 -350 32 -478 5 -443 -95 -836 -403 -1172 -917 -193 -294 -319
-550 -848 -1725 -256 -570 -546 -1255 -820 -1940 -254 -634 -415 -1146 -497
-1580 -23 -122 -28 -456 -9 -580 42 -274 149 -487 310 -617 109 -87 236 -143
416 -180 125 -25 458 -35 637 -19 842 79 1686 490 2475 1204 l97 87 5 -42 c2
-24 12 -108 21 -188 63 -563 254 -854 625 -951 285 -74 850 0 1430 186 277 90
734 271 1043 414 49 23 91 41 93 41 2 0 4 -24 4 -52 0 -29 7 -95 15 -146 39
-241 170 -424 356 -497 156 -61 418 -72 599 -26 113 29 289 116 370 183 166
138 34 -36 3009 3965 l366 493 67 0 66 0 -40 -102 c-275 -700 -504 -1343 -613
-1720 -271 -935 -364 -1709 -265 -2199 68 -332 205 -545 398 -620 108 -42 384
-37 677 12 458 77 1036 299 1603 616 74 41 135 73 137 71 2 -2 -3 -71 -11
-153 -28 -270 -7 -364 105 -468 108 -100 195 -122 456 -115 147 4 165 6 217
30 185 86 227 135 852 1018 317 448 524 729 537 730 3 0 0 -37 -8 -82 -16 -99
-18 -364 -3 -466 85 -602 436 -1052 930 -1195 341 -99 906 -102 1405 -7 882
168 1856 641 2823 1372 79 59 145 108 147 108 2 0 9 -26 15 -57 105 -528 293
-906 595 -1191 317 -301 661 -439 1178 -472 530 -35 1061 87 1639 376 918 460
1770 1342 2366 2450 204 379 390 857 513 1314 131 489 215 960 250 1395 26
327 -12 897 -73 1095 -27 88 -36 98 -116 128 -188 72 -823 274 -2007 639
l-860 265 -80 -33 c-133 -53 -551 -262 -700 -349 -387 -229 -620 -408 -946
-731 -396 -392 -597 -653 -886 -1149 -249 -427 -392 -716 -530 -1069 -55 -141
-292 -614 -441 -882 -206 -369 -324 -530 -553 -755 -178 -174 -365 -328 -594
-490 -186 -132 -772 -339 -1142 -405 -162 -29 -442 -36 -578 -16 -404 62 -680
290 -777 643 -18 65 -22 105 -22 234 0 183 17 261 88 405 84 170 195 271 1161
1056 281 228 643 525 806 659 162 135 518 427 790 650 839 688 1187 989 1489
1290 179 178 247 262 310 381 120 230 83 430 -104 564 -129 92 -248 131 -510
169 -710 103 -1233 29 -1658 -235 -235 -146 -382 -291 -961 -952 -429 -490
-1704 -1993 -2104 -2482 -18 -22 -33 -36 -33 -31 0 5 76 155 169 335 1071
2071 3081 5977 3849 7481 646 1267 652 1279 667 1417 31 274 -198 489 -605
569 -115 22 -421 27 -560 10z m5520 -7375 c213 -68 387 -259 473 -518 66 -200
87 -348 87 -608 0 -388 -70 -776 -220 -1225 -311 -933 -880 -1787 -1500 -2251
-409 -305 -812 -399 -1098 -255 -368 185 -531 713 -447 1441 80 688 378 1471
813 2135 464 711 1015 1180 1512 1291 112 25 285 20 380 -10z"/>
<path d="M36790 12100 c-300 -30 -540 -299 -540 -605 0 -202 121 -424 282
-519 l46 -27 -39 -152 c-225 -863 -462 -1382 -681 -1491 -227 -113 -445 179
-634 845 -39 141 -124 486 -124 507 0 4 27 27 61 52 73 53 150 152 184 238
148 368 -122 772 -515 772 -202 0 -390 -113 -484 -290 -51 -96 -69 -171 -69
-275 1 -211 119 -401 306 -495 43 -22 93 -42 112 -46 33 -6 35 -8 35 -48 1
-129 98 -2328 103 -2333 7 -6 223 -77 2351 -768 840 -273 1529 -495 1530 -493
23 31 1422 1847 1432 1857 11 12 22 11 79 -8 304 -99 620 71 711 384 22 79 22
221 -1 300 -53 185 -201 335 -385 389 -70 21 -216 22 -294 1 -192 -51 -354
-221 -396 -416 -16 -74 -8 -248 15 -312 l17 -48 -28 -31 c-45 -47 -317 -278
-439 -373 -231 -180 -451 -311 -594 -356 -71 -21 -189 -27 -232 -10 -112 42
-169 197 -154 416 22 317 171 858 383 1390 l20 50 88 1 c108 1 177 16 269 59
345 163 452 620 218 924 -112 145 -300 240 -476 241 -61 0 -185 -25 -242 -50
-364 -156 -479 -625 -233 -947 l48 -62 -86 -152 c-269 -479 -472 -775 -669
-977 -179 -185 -303 -255 -450 -256 -66 0 -90 4 -138 26 -286 133 -363 628
-262 1668 22 221 16 204 82 218 156 32 323 164 395 312 217 442 -118 939 -602
890z"/>
</g>
</svg>
