<?xml version="1.0" standalone="no"?>
<!DOCTYPE svg PUBLIC "-//W3C//DTD SVG 20010904//EN"
 "http://www.w3.org/TR/2001/REC-SVG-20010904/DTD/svg10.dtd">
<svg version="1.0" xmlns="http://www.w3.org/2000/svg"
 width="1440.000000pt" height="576.000000pt" viewBox="0 0 1440.000000 576.000000"
 preserveAspectRatio="xMidYMid meet">

<g transform="translate(0.000000,576.000000) scale(0.100000,-0.100000)"
fill="#000000" stroke="none">
<path d="M0 2880 l0 -2880 7200 0 7200 0 0 2880 0 2880 -7200 0 -7200 0 0
-2880z m1575 2408 c3 -13 88 -558 190 -1213 101 -655 188 -1203 192 -1218 6
-20 63 315 197 1155 104 651 193 1209 198 1241 l10 57 559 0 559 0 1 -2202 1
-2203 331 2203 332 2202 582 0 583 0 5 -22 c2 -13 147 -970 320 -2128 174
-1157 318 -2107 321 -2109 2 -2 4 955 4 2128 l0 2132 543 -4 c561 -5 582 -6
743 -50 327 -90 654 -349 826 -655 17 -29 32 -51 35 -49 2 3 -17 165 -42 361
-25 196 -45 366 -45 376 0 20 9 20 444 20 l443 0 5 -32 c3 -18 93 -677 199
-1465 107 -787 195 -1431 196 -1429 1 1 90 643 198 1427 107 783 197 1441 201
1462 l6 37 1234 0 1234 0 0 -445 0 -445 -395 0 -395 0 0 -545 0 -545 395 0
395 0 0 -445 0 -445 -395 0 -395 0 0 -555 0 -555 395 0 395 0 0 -440 0 -440
-830 0 -830 0 -2 2180 -3 2180 -346 -2178 -345 -2177 -511 -3 c-481 -2 -512
-1 -516 15 -3 10 -117 688 -254 1508 l-248 1490 -6 -125 c-17 -332 -195 -708
-445 -939 l-75 -68 276 -937 c151 -516 275 -939 275 -942 0 -2 -194 -3 -432
-2 l-432 3 -210 800 c-115 440 -210 801 -210 801 -1 1 -41 -4 -91 -12 -49 -7
-93 -14 -97 -14 -5 0 -9 -354 -10 -787 l-3 -788 -832 -3 c-786 -2 -832 -1
-836 15 -3 10 -27 179 -53 376 l-48 357 -338 0 -338 0 -4 -22 c-3 -13 -26
-176 -51 -363 -25 -187 -48 -346 -50 -353 -3 -9 -182 -12 -850 -12 l-845 0 -1
1148 -1 1147 -194 -1145 c-106 -630 -193 -1146 -194 -1147 0 -2 -105 -3 -234
-3 l-234 0 -9 53 c-5 28 -92 539 -194 1133 l-184 1082 -5 -1132 -5 -1131 -440
0 -440 0 -3 2415 c-1 1328 0 2421 3 2428 3 9 125 12 559 12 l556 0 5 -22z
m11625 -1968 l0 -1990 373 -2 372 -3 0 -435 0 -435 -807 -3 -808 -2 0 2430 0
2430 435 0 435 0 0 -1990z"/>
<path d="M6840 3660 l0 -781 48 7 c232 35 415 218 492 495 47 171 47 410 0
595 -67 260 -243 425 -487 459 l-53 7 0 -782z"/>
<path d="M4728 3980 c-4 -8 -56 -451 -118 -985 -61 -533 -113 -982 -116 -997
l-6 -28 247 0 246 0 -6 33 c-3 17 -57 464 -120 992 -130 1089 -120 1005 -127
985z"/>
</g>
</svg>
