<?xml version="1.0" standalone="no"?>
<!DOCTYPE svg PUBLIC "-//W3C//DTD SVG 20010904//EN"
 "http://www.w3.org/TR/2001/REC-SVG-20010904/DTD/svg10.dtd">
<svg version="1.0" xmlns="http://www.w3.org/2000/svg"
 width="4096.000000pt" height="1070.000000pt" viewBox="0 0 4096.000000 1070.000000"
 preserveAspectRatio="xMidYMid meet">

<g transform="translate(0.000000,1070.000000) scale(0.100000,-0.100000)"
fill="#000000" stroke="none">
<path d="M5000 10689 c-1346 -76 -2547 -597 -3446 -1494 -245 -245 -453 -496
-634 -764 -728 -1084 -1042 -2453 -874 -3811 193 -1559 1017 -2917 2269 -3742
796 -524 1699 -811 2730 -868 258 -14 30627 -14 30875 0 396 23 748 74 1100
161 1503 371 2719 1350 3385 2724 303 624 472 1249 536 1985 17 187 17 733 1
920 -42 470 -131 916 -266 1325 -409 1236 -1225 2246 -2326 2876 -713 408
-1519 639 -2410 689 -209 12 -30731 11 -30940 -1z m30985 -1317 c428 -44 718
-101 1046 -208 414 -135 783 -323 1115 -569 1103 -819 1670 -2190 1528 -3695
-109 -1160 -654 -2162 -1530 -2812 -604 -448 -1352 -709 -2202 -767 -212 -15
-30686 -15 -30904 -1 -311 21 -577 62 -853 131 -947 238 -1730 783 -2250 1569
-123 187 -205 333 -290 518 -476 1042 -510 2333 -88 3407 343 875 979 1573
1811 1989 546 274 1144 421 1807 446 110 4 7060 6 15445 5 11921 -1 15271 -4
15365 -13z"/>
<path d="M4067 7873 c-4 -3 -7 -1137 -7 -2520 l0 -2513 735 0 735 0 2 1757 3
1756 1029 -1756 1029 -1757 733 0 734 0 0 2515 0 2515 -735 0 -735 0 -2 -1750
-3 -1749 -1021 1752 -1022 1752 -734 3 c-404 1 -738 -1 -741 -5z"/>
<path d="M9877 7873 c-4 -3 -7 -235 -7 -515 l0 -508 715 0 715 0 0 515 0 515
-708 0 c-390 0 -712 -3 -715 -7z"/>
<path d="M30950 6950 c0 -506 -3 -920 -7 -920 -5 0 -35 16 -67 36 -249 150
-521 237 -806 259 -173 14 -440 -31 -626 -104 -458 -182 -847 -602 -1024
-1106 -129 -366 -130 -812 -3 -1185 146 -431 458 -799 853 -1004 500 -259
1121 -236 1596 59 40 25 74 45 78 45 3 0 6 -43 6 -95 l0 -95 700 0 700 0 0
2515 0 2515 -700 0 -700 0 0 -920z m-366 -1201 c153 -51 277 -179 330 -341 43
-129 48 -222 44 -943 -4 -655 -4 -672 -26 -750 -61 -220 -184 -351 -388 -411
-72 -21 -207 -24 -284 -5 -194 48 -335 189 -397 396 -16 55 -18 126 -21 805
-3 838 -3 838 68 985 66 137 195 242 346 280 86 21 240 14 328 -16z"/>
<path d="M37045 7830 c-239 -38 -447 -181 -568 -390 -14 -25 -41 -88 -59 -140
-30 -89 -32 -104 -33 -230 0 -155 14 -220 74 -345 94 -197 254 -334 476 -407
86 -28 286 -36 380 -14 162 38 269 98 390 220 102 104 159 198 197 331 33 117
33 328 0 435 -83 265 -291 465 -545 525 -81 19 -236 26 -312 15z m269 -160
c184 -47 329 -164 409 -331 53 -111 67 -169 67 -287 0 -196 -77 -358 -225
-482 -59 -48 -168 -102 -245 -121 -71 -17 -229 -17 -300 0 -216 52 -392 219
-460 436 -28 90 -31 241 -6 335 59 219 253 408 468 455 92 20 202 18 292 -5z"/>
<path d="M36900 7071 l0 -431 100 0 100 0 0 180 0 180 44 0 c24 0 48 -6 53
-12 5 -7 42 -88 83 -180 l73 -168 103 0 c60 0 104 4 104 10 0 5 -38 91 -85
191 -85 182 -89 198 -48 199 23 0 96 74 114 115 23 50 24 142 3 193 -22 54
-71 99 -133 124 -50 20 -79 22 -283 26 l-228 4 0 -431z m407 274 c38 -22 53
-53 53 -109 0 -84 -52 -116 -187 -116 l-73 0 0 126 0 126 88 -4 c61 -3 96 -9
119 -23z"/>
<path d="M17040 7020 l0 -340 -385 0 -385 0 0 -250 0 -250 385 0 385 0 0
-1670 0 -1670 715 0 715 0 0 1670 0 1670 385 0 385 0 0 250 0 250 -385 0 -385
0 0 340 0 340 -715 0 -715 0 0 -340z"/>
<path d="M34718 6410 c-925 -83 -1667 -683 -1854 -1500 -131 -574 55 -1189
491 -1625 385 -384 904 -603 1475 -622 390 -13 746 63 1081 229 231 114 399
237 579 425 330 342 501 758 501 1217 0 288 -54 522 -181 776 -288 575 -882
984 -1575 1084 -138 20 -389 27 -517 16z m365 -440 c183 -70 312 -229 369
-455 l23 -90 0 -890 0 -890 -23 -85 c-80 -301 -286 -480 -554 -480 -153 0
-268 48 -379 159 -90 91 -145 191 -180 333 l-24 93 0 875 c0 783 2 883 17 946
61 263 204 434 413 496 86 25 257 20 338 -12z"/>
<path d="M20960 6390 c-305 -29 -579 -107 -839 -240 -223 -113 -393 -241 -567
-423 -201 -210 -352 -470 -428 -734 -52 -182 -61 -254 -60 -478 0 -189 3 -223
27 -336 42 -200 112 -378 212 -544 312 -516 858 -868 1505 -970 165 -26 506
-31 667 -11 680 87 1264 486 1586 1086 44 81 97 199 112 248 l6 22 -709 0
-710 0 -5 -202 c-5 -234 -20 -309 -90 -443 -116 -223 -367 -344 -609 -294 -29
6 -91 29 -137 51 -114 54 -201 141 -258 258 -81 165 -93 261 -93 753 l0 367
1350 0 1350 0 -5 53 c-2 28 -7 84 -10 122 -25 306 -165 645 -380 920 -72 92
-230 250 -325 326 -291 233 -684 400 -1071 454 -141 19 -392 27 -519 15z m345
-422 c166 -37 328 -173 385 -326 61 -160 97 -396 85 -544 l-7 -78 -599 0 -599
0 0 133 c0 280 67 517 183 643 144 158 340 219 552 172z"/>
<path d="M14485 6329 c-325 -41 -676 -208 -912 -433 l-63 -59 0 176 0 177
-710 0 -710 0 0 -1675 0 -1675 711 0 712 0 -4 1128 c-3 1260 -8 1166 69 1322
46 94 160 216 252 270 36 21 101 51 145 66 71 25 95 28 205 28 111 0 134 -4
209 -29 198 -68 347 -215 416 -415 l30 -85 3 -1142 3 -1143 704 0 704 0 3 993
c2 545 0 1034 -5 1086 -25 303 -155 612 -364 863 -240 289 -594 485 -978 543
-108 16 -307 18 -420 4z"/>
<path d="M26066 6325 c-333 -54 -669 -218 -888 -433 l-58 -56 0 177 0 177
-710 0 -710 0 0 -1675 0 -1675 710 0 710 0 0 1126 c0 996 2 1133 16 1187 56
218 226 396 449 473 69 24 96 28 200 28 99 1 133 -3 195 -22 176 -55 324 -179
398 -333 75 -155 72 -105 72 -1349 l0 -1110 710 0 710 0 0 998 c0 1153 -2
1177 -86 1431 -175 526 -624 923 -1179 1041 -132 28 -410 36 -539 15z"/>
<path d="M9880 4515 l0 -1675 710 0 710 0 0 1675 0 1675 -710 0 -710 0 0
-1675z"/>
</g>
</svg>
