<?xml version="1.0" standalone="no"?>
<!DOCTYPE svg PUBLIC "-//W3C//DTD SVG 20010904//EN"
 "http://www.w3.org/TR/2001/REC-SVG-20010904/DTD/svg10.dtd">
<svg version="1.0" xmlns="http://www.w3.org/2000/svg"
 width="1440.000000pt" height="311.000000pt" viewBox="0 0 1440.000000 311.000000"
 preserveAspectRatio="xMidYMid meet">

<g transform="translate(0.000000,311.000000) scale(0.100000,-0.100000)"
fill="#000000" stroke="none">
<path d="M1512 1658 l3 -1451 322 -102 322 -102 3 1246 c3 1326 1 1276 50
1329 49 51 144 14 188 -73 l25 -50 3 -540 3 -540 54 -22 c257 -105 487 -37
595 177 86 171 103 474 39 718 -79 298 -293 476 -762 630 -273 90 -647 194
-815 225 l-32 7 2 -1452z"/>
<path d="M5074 2477 c-3 -8 -4 -52 -2 -98 l3 -84 1060 -5 1060 -5 57 -28 c67
-33 112 -80 146 -155 21 -47 24 -65 20 -131 -7 -123 -65 -207 -177 -260 l-56
-26 -865 -5 c-858 -5 -865 -5 -918 -27 -122 -50 -228 -145 -277 -249 -49 -103
-56 -166 -53 -487 l3 -292 195 0 195 0 5 320 5 320 27 51 c28 52 86 112 135
138 65 33 141 36 962 36 l816 0 65 23 c163 58 281 186 325 352 69 268 -109
552 -382 610 -98 21 -2341 22 -2349 2z"/>
<path d="M9364 2475 c-127 -27 -245 -110 -316 -219 -73 -113 -72 -101 -78
-681 -5 -516 -5 -520 -28 -570 -29 -63 -83 -119 -147 -153 l-50 -27 -528 -3
-528 -3 3 -97 3 -97 598 -3 c652 -2 684 0 797 55 70 34 188 151 220 218 54
117 53 104 59 660 6 517 6 520 29 567 28 56 88 112 151 142 45 20 61 21 576
26 l530 5 0 95 0 95 -615 2 c-480 1 -628 -1 -676 -12z"/>
<path d="M11064 2477 c-3 -8 -4 -184 -2 -393 l3 -379 27 -51 c15 -28 48 -70
73 -92 86 -76 34 -72 1019 -72 516 0 905 -4 940 -10 113 -18 209 -89 256 -187
34 -71 39 -181 10 -255 -28 -75 -96 -150 -168 -185 l-57 -28 -1053 -3 -1053
-2 3 -98 3 -97 1123 -3 c965 -2 1133 0 1195 13 204 42 365 198 412 397 65 278
-105 561 -380 633 -51 13 -182 15 -945 15 -851 0 -887 1 -927 20 -80 36 -83
49 -83 337 l0 253 1138 2 1137 3 0 95 0 95 -1333 3 c-1108 2 -1333 0 -1338
-11z"/>
<path d="M1010 1224 c-190 -68 -421 -151 -515 -184 -401 -144 -526 -238 -486
-370 15 -50 96 -124 174 -160 127 -57 373 -120 555 -141 125 -14 453 -7 565
12 l77 13 0 168 c0 92 -2 168 -4 168 -2 0 -86 -29 -185 -65 -211 -75 -277 -89
-409 -83 -151 6 -218 51 -159 106 23 22 130 63 550 212 l207 74 0 188 c0 144
-3 188 -12 187 -7 0 -168 -57 -358 -125z"/>
<path d="M2860 1183 c-159 -16 -448 -76 -542 -112 l-28 -11 0 -195 c0 -107 1
-195 3 -195 1 0 167 58 369 129 201 71 392 134 423 141 75 16 228 16 285 0
110 -29 105 -88 -13 -135 -23 -10 -271 -99 -552 -199 l-510 -181 -3 -188 c-1
-103 1 -187 6 -187 23 0 1465 525 1529 556 80 40 165 110 188 155 19 36 19 92
1 128 -21 39 -86 96 -148 127 -81 41 -301 110 -423 133 -190 36 -431 50 -585
34z"/>
<path d="M14020 820 c0 -5 14 -10 30 -10 l30 0 0 -96 c0 -72 3 -95 13 -92 8 3
13 34 15 96 l3 92 29 0 c17 0 30 5 30 10 0 6 -32 10 -75 10 -43 0 -75 -4 -75
-10z"/>
<path d="M14200 725 c0 -63 4 -105 10 -105 6 0 10 38 11 93 l1 92 31 -93 c22
-65 36 -92 46 -90 8 2 27 41 45 93 l31 90 3 -92 c4 -129 22 -118 22 13 0 103
0 105 -22 102 -18 -2 -27 -18 -48 -85 -15 -46 -29 -85 -31 -87 -3 -3 -17 35
-32 84 -22 74 -31 90 -47 90 -19 0 -20 -7 -20 -105z"/>
<path d="M3700 291 c-106 -56 -104 -218 3 -270 54 -26 89 -26 145 -1 33 15 47
29 62 62 26 56 25 94 -2 148 -39 75 -131 102 -208 61z m146 -26 c38 -24 57
-63 57 -111 0 -54 -24 -91 -77 -118 -119 -59 -237 93 -154 200 42 53 118 66
174 29z"/>
<path d="M3718 244 c-5 -4 -8 -45 -8 -91 0 -76 2 -83 20 -83 16 0 20 7 20 35
0 31 3 35 25 35 20 0 27 -6 32 -31 6 -29 27 -48 40 -36 3 4 -3 24 -14 45 -15
31 -16 41 -6 51 15 14 17 57 3 66 -16 10 -105 17 -112 9z m89 -40 c4 -11 -1
-22 -12 -30 -30 -22 -45 -17 -45 16 0 25 4 30 25 30 15 0 28 -7 32 -16z"/>
</g>
</svg>
