<?xml version="1.0" standalone="no"?>
<!DOCTYPE svg PUBLIC "-//W3C//DTD SVG 20010904//EN"
 "http://www.w3.org/TR/2001/REC-SVG-20010904/DTD/svg10.dtd">
<svg version="1.0" xmlns="http://www.w3.org/2000/svg"
 width="1100.000000pt" height="172.000000pt" viewBox="0 0 1100.000000 172.000000"
 preserveAspectRatio="xMidYMid meet">

<g transform="translate(0.000000,172.000000) scale(0.100000,-0.100000)"
fill="#000000" stroke="none">
<path d="M395 1704 c-207 -37 -334 -148 -371 -325 -35 -161 -1 -299 99 -406
70 -75 143 -125 341 -239 148 -84 241 -158 263 -211 31 -76 7 -168 -57 -211
-30 -20 -45 -23 -97 -20 -115 7 -153 59 -153 206 l0 92 -210 0 -210 0 0 -87
c1 -269 108 -414 355 -478 140 -36 353 -29 492 17 120 39 218 130 256 236 27
73 39 211 28 303 -23 182 -112 275 -436 454 -227 125 -272 165 -281 252 -6 56
15 105 58 136 38 28 114 33 157 10 57 -30 74 -62 79 -153 l5 -80 195 0 195 0
-6 108 c-7 129 -30 200 -88 266 -105 119 -365 175 -614 130z"/>
<path d="M5535 1700 c-125 -19 -212 -57 -286 -127 -91 -85 -134 -235 -112
-387 25 -176 114 -266 451 -457 201 -113 262 -177 262 -272 0 -90 -35 -139
-110 -156 -67 -15 -132 2 -170 45 -29 34 -30 37 -30 139 l0 105 -210 0 -210 0
0 -91 c0 -49 7 -121 16 -160 50 -222 268 -342 594 -326 181 9 300 49 388 131
92 86 128 205 120 395 -9 214 -81 298 -420 488 -259 144 -294 179 -286 285 4
50 9 64 35 90 26 25 42 32 86 36 111 9 166 -49 167 -175 l0 -63 191 0 191 0
-3 118 c-4 104 -7 123 -32 174 -70 142 -243 219 -487 216 -52 0 -117 -4 -145
-8z"/>
<path d="M10305 1703 c-225 -35 -350 -136 -402 -324 -16 -57 -18 -114 -18
-509 0 -486 2 -506 58 -613 51 -98 149 -164 297 -203 89 -24 309 -24 403 -1
198 49 319 170 347 347 5 36 10 176 10 313 l0 247 -280 0 -280 0 0 -115 0
-115 86 0 86 0 -3 -154 c-4 -137 -6 -158 -25 -182 -41 -55 -70 -69 -144 -69
-74 0 -103 14 -144 69 -20 26 -21 42 -24 415 -4 487 3 547 73 592 54 34 160
27 203 -14 40 -37 52 -71 52 -152 l0 -75 200 0 200 0 0 48 c-2 266 -107 416
-335 478 -59 16 -296 28 -360 17z"/>
<path d="M1542 883 c-78 -434 -142 -796 -142 -805 0 -17 17 -18 205 -18 156 0
207 3 210 13 3 6 52 333 110 726 58 393 107 716 109 719 3 2 7 -6 10 -19 5
-23 206 -1420 206 -1433 0 -3 95 -6 210 -6 116 0 210 2 210 5 0 8 -279 1557
-285 1583 l-5 22 -348 0 -348 0 -142 -787z"/>
<path d="M3020 1578 c0 -51 -7 -370 -15 -708 -8 -338 -15 -659 -15 -712 l0
-98 195 0 195 0 0 358 c0 384 11 1094 17 1089 3 -4 263 -1424 263 -1439 0 -5
90 -8 200 -8 110 0 200 2 200 5 0 12 261 1439 264 1442 6 6 16 -645 16 -1039
l0 -408 195 0 195 0 0 118 c0 64 -7 396 -15 737 -8 341 -15 650 -15 688 l0 67
-319 0 -319 0 -5 -22 c-3 -13 -47 -290 -98 -615 -51 -326 -96 -593 -99 -593
-3 0 -47 269 -99 598 -51 328 -95 605 -98 615 -4 16 -28 17 -324 17 l-319 0 0
-92z"/>
<path d="M6610 1047 c0 -408 4 -644 11 -683 32 -176 150 -288 345 -329 90 -19
298 -19 388 0 89 19 182 63 235 110 48 43 97 137 111 214 6 32 10 303 10 682
l0 629 -195 0 -194 0 -3 -634 c-3 -623 -3 -635 -24 -662 -39 -52 -70 -69 -133
-69 -63 0 -99 18 -128 62 -17 25 -18 77 -23 663 l-5 635 -197 3 -198 2 0 -623z"/>
<path d="M8150 875 l0 -795 196 0 197 0 -7 118 c-3 64 -8 358 -11 652 -4 456
-3 530 8 500 8 -19 96 -313 197 -653 l184 -617 278 0 278 0 0 795 0 795 -191
0 -192 0 7 -557 c4 -307 9 -591 12 -630 4 -42 2 -73 -3 -73 -5 0 -90 282 -188
627 l-180 628 -292 3 -293 2 0 -795z"/>
</g>
</svg>
